# xmcd CD database file
# Copyright (C) 1997 Ti Kan
# 
# Track frame offsets:
#     187
#     13180
#     26580
#     37385
#     51697
#     62272
#     74187
#     84170
#     95817
#     108397
#     123152
#     137425
#     148725
# 
# Disc length: 2151 seconds
# 
# Revision: 1
# Processed by: cddbd v1.4b41PL1 Copyright (c) Steve Scherf et al.
# Submitted via: DiscPlay 4.0.3
# 
DISCID=c108650d
DTITLE=Johnny Horton - Johnny Horton's Greatest Hits
DYEAR=1900
DGENRE=
TTITLE0=North To Alaska
TTITLE1=Whispering Pines
TTITLE2=Johnny Reb
TTITLE3=The Mansion You Stole
TTITLE4=I'm Ready If You're Willing
TTITLE5=When It's Springtime In Alaska (It's Forty Below)
TTITLE6=Honky Tonk Man
TTITLE7=The Battle Of New Orleans
TTITLE8=All For The Love Of A Girl
TTITLE9=Sink The Bismarck
TTITLE10=Commanche (The Brave Horse)
TTITLE11=Jim Bridger
TTITLE12=Johnny Freedom
EXTD=
EXTT0=
EXTT1=
EXTT2=
EXTT3=
EXTT4=
EXTT5=
EXTT6=
EXTT7=
EXTT8=
EXTT9=
EXTT10=
EXTT11=
EXTT12=
PLAYORDER=
